<?xml version="1.0" standalone="no"?>
<!DOCTYPE svg PUBLIC "-//W3C//DTD SVG 20010904//EN"
 "http://www.w3.org/TR/2001/REC-SVG-20010904/DTD/svg10.dtd">
<svg version="1.0" xmlns="http://www.w3.org/2000/svg"
 width="700.000000pt" height="700.000000pt" viewBox="0 0 700.000000 700.000000"
 preserveAspectRatio="xMidYMid meet">
<metadata>
Created by potrace 1.11, written by Peter Selinger 2001-2013
</metadata>
<g transform="translate(0.000000,700.000000) scale(0.100000,-0.100000)"
fill="#000000" stroke="none">
<path d="M3445 6829 c-37 -10 -79 -49 -102 -92 -15 -28 -17 -75 -17 -423 0
-390 0 -390 23 -429 55 -93 166 -119 251 -57 74 52 75 56 74 491 0 382 0 387
-23 426 -41 73 -124 107 -206 84z"/>
<path d="M5208 6539 c-43 -11 -91 -45 -109 -76 -9 -15 -51 -136 -94 -268 -42
-132 -93 -287 -112 -345 -49 -146 -47 -205 11 -268 33 -37 74 -54 128 -54 58
1 104 25 135 71 22 32 226 646 247 744 13 56 -31 149 -84 177 -31 17 -94 27
-122 19z"/>
<path d="M1685 6526 c-66 -30 -111 -112 -99 -181 2 -17 18 -70 33 -120 131
-411 195 -598 214 -626 60 -88 191 -96 265 -16 30 32 51 92 45 131 -4 31 -46
167 -149 486 -30 91 -54 169 -54 173 0 5 -12 33 -26 63 -42 90 -141 129 -229
90z"/>
<path d="M127 5759 c-81 -22 -135 -108 -123 -193 6 -38 41 -93 217 -338 115
-161 219 -303 231 -316 68 -73 188 -73 254 0 45 49 56 130 26 189 -21 41 -392
561 -431 602 -47 52 -114 73 -174 56z"/>
<path d="M6765 5726 c-16 -7 -39 -22 -51 -32 -30 -28 -421 -570 -448 -622 -38
-73 -5 -174 70 -218 37 -22 54 -26 98 -22 33 3 65 13 84 26 27 20 121 145 389
522 90 126 105 168 83 237 -22 69 -77 111 -154 119 -22 2 -54 -2 -71 -10z"/>
<path d="M3299 5146 c-2 -2 -49 -6 -104 -9 -101 -6 -356 -39 -405 -52 -8 -2
-31 -7 -50 -10 -127 -21 -364 -84 -515 -137 -221 -76 -551 -225 -676 -303 -21
-14 -40 -25 -43 -25 -16 0 -332 -210 -415 -277 -31 -25 -63 -50 -71 -56 -141
-107 -420 -377 -536 -519 -93 -112 -142 -177 -151 -198 -23 -55 2 -153 51
-203 7 -7 47 -54 89 -104 75 -90 318 -340 387 -398 19 -17 64 -55 100 -86 121
-104 379 -287 500 -357 19 -11 69 -39 110 -63 258 -147 635 -297 940 -373 118
-30 154 -38 230 -52 18 -3 83 -17 90 -19 3 0 37 -5 75 -10 39 -5 72 -9 75 -10
14 -3 124 -16 200 -22 174 -15 585 -9 763 13 85 10 123 15 147 19 14 3 43 7
65 10 223 27 680 160 915 268 270 123 424 206 604 324 101 67 309 221 359 266
16 14 47 41 70 59 81 64 363 354 460 473 58 72 102 135 107 156 18 67 -3 135
-62 199 -13 14 -55 63 -94 110 -264 314 -618 611 -995 835 -320 191 -757 369
-1079 441 -19 4 -37 8 -40 9 -72 17 -143 31 -260 51 -101 17 -112 19 -205 29
-33 3 -78 8 -100 11 -47 6 -531 14 -536 10z m521 -360 c19 -2 60 -7 90 -11 54
-6 175 -23 215 -30 17 -3 65 -12 150 -29 57 -11 232 -58 316 -85 l95 -31 18
-52 c64 -188 85 -318 81 -493 -12 -451 -250 -854 -641 -1084 -123 -72 -301
-137 -429 -155 -23 -4 -52 -9 -65 -11 -37 -7 -249 -7 -295 0 -329 51 -544 155
-756 365 -257 255 -392 588 -383 950 3 146 21 247 66 383 l32 97 93 30 c144
46 404 108 523 124 72 10 136 19 153 22 10 2 62 6 115 10 53 3 99 8 100 10 6
4 482 -4 522 -10z m-1925 -378 c-35 -159 -38 -437 -5 -608 15 -78 61 -253 70
-265 4 -5 13 -27 20 -48 6 -20 30 -74 52 -120 147 -303 428 -589 731 -743 126
-65 329 -132 447 -149 25 -4 65 -10 90 -15 46 -9 389 -7 425 2 11 3 40 9 65
13 132 21 264 64 413 134 319 148 600 427 766 759 57 113 122 310 136 410 3
20 11 62 17 92 11 59 14 325 4 400 -7 52 -14 95 -21 128 -3 12 -2 22 3 22 12
0 191 -97 277 -150 308 -189 615 -447 836 -703 l59 -68 -38 -42 c-173 -193
-288 -303 -507 -486 -82 -67 -291 -208 -445 -299 -194 -114 -485 -239 -735
-316 -85 -26 -260 -71 -310 -80 -16 -2 -55 -9 -85 -16 -82 -16 -126 -23 -240
-35 -178 -19 -248 -22 -465 -19 -230 3 -280 5 -390 20 -64 9 -79 11 -139 18
-27 4 -51 8 -55 10 -4 3 -27 7 -51 11 -68 9 -242 51 -360 87 -642 192 -1217
559 -1664 1062 l-76 86 27 32 c269 310 581 570 923 770 80 47 218 124 228 127
1 1 0 -9 -3 -21z"/>
<path d="M4197 4145 c-57 -20 -84 -50 -136 -156 -89 -178 -223 -346 -365 -459
-76 -60 -98 -98 -99 -165 -2 -136 138 -214 266 -149 74 38 203 145 282 235
119 135 199 266 250 407 28 78 32 111 22 167 -16 91 -128 153 -220 120z"/>
<path d="M504 2151 c-32 -14 -59 -44 -120 -127 -43 -59 -86 -118 -94 -130 -8
-13 -65 -92 -126 -176 -155 -215 -153 -211 -159 -249 -24 -136 103 -243 232
-194 42 16 94 74 173 192 8 12 87 122 174 244 143 199 160 225 164 269 13 133
-123 228 -244 171z"/>
<path d="M6333 2145 c-78 -47 -105 -151 -60 -230 13 -22 117 -170 232 -329
185 -257 213 -290 251 -307 135 -60 280 67 234 207 -7 20 -89 143 -183 273
-274 380 -273 379 -313 396 -54 22 -112 19 -161 -10z"/>
<path d="M1930 1467 c-49 -12 -87 -43 -109 -85 -14 -27 -160 -467 -185 -557
-2 -5 -6 -17 -9 -25 -26 -65 -47 -159 -42 -188 24 -150 202 -206 301 -94 21
24 57 128 230 662 31 95 34 129 18 175 -29 86 -118 135 -204 112z"/>
<path d="M4974 1437 c-71 -27 -117 -91 -117 -162 0 -23 29 -130 68 -250 176
-546 169 -529 223 -565 26 -19 50 -25 93 -27 50 -1 64 2 98 27 82 60 94 135
43 285 -16 50 -68 209 -116 355 -92 286 -100 302 -178 334 -43 19 -71 19 -114
3z"/>
<path d="M3424 1215 c-18 -9 -42 -27 -54 -40 -42 -45 -46 -88 -45 -480 2 -414
3 -420 71 -471 33 -25 46 -29 104 -29 57 0 72 4 102 27 71 54 72 58 72 478 1
424 -1 441 -67 494 -46 37 -132 47 -183 21z"/>
</g>
</svg>
